<svg xmlns="http://www.w3.org/2000/svg" viewBox="0 0 56.185 48.544">
  <defs>
    <style>
      .cls-1 {
        fill: #333;
      }
    </style>
  </defs>
  <g id="Symbol_94_1" data-name="Symbol 94 – 1" transform="translate(-1292.804 -1269.959)">
    <g id="Group_219" data-name="Group 219" transform="translate(1292.804 1243.556)">
      <path id="Path_293" data-name="Path 293" class="cls-1" d="M29.108,248.537a7.106,7.106,0,0,1-4.46-1.663l-8.24-7.257a3.628,3.628,0,0,0-4.687-.227L0,248.007V253.6a2.721,2.721,0,0,0,2.565,2.869c.077,0,.155.005.232,0H44.3a3.183,3.183,0,0,0,3.326-2.873V238.936l-14.892,8.618A6.879,6.879,0,0,1,29.108,248.537Z" transform="translate(0 -181.528)"/>
      <circle id="Ellipse_23" data-name="Ellipse 23" class="cls-1" cx="3.326" cy="3.326" r="3.326" transform="translate(25.177 45.691)"/>
      <path id="Path_294" data-name="Path 294" class="cls-1" d="M103.776,32.311a2.8,2.8,0,0,0-2.041-1.134l-41.2-4.762a3.01,3.01,0,0,0-3.4,2.57l-.68,5.9H92.589a6.5,6.5,0,0,1,6.35,6.274V67.84c0-.151.68-.3.983-.6a2.57,2.57,0,0,0,.983-2.041L104.457,34.5A2.949,2.949,0,0,0,103.776,32.311Z" transform="translate(-48.287)"/>
      <path id="Path_295" data-name="Path 295" class="cls-1" d="M44.328,105.9H2.827a3.051,3.051,0,0,0-2.8,3.25v21.544l9.978-7.257a6.652,6.652,0,0,1,8.391.378l8.315,7.257a3.855,3.855,0,0,0,4.46.378l16.479-9.6v-12.7A3.477,3.477,0,0,0,44.328,105.9Zm-15.8,17.462a6.35,6.35,0,1,1,6.35-6.35A6.35,6.35,0,0,1,28.529,123.361Z" transform="translate(-0.026 -67.994)"/>
    </g>
  </g>
</svg>
