<svg xmlns="http://www.w3.org/2000/svg" viewBox="0 0 129.566 129.565">
  <defs>
    <style>
      .cls-1 {
        fill: #66cdaa;
      }
    </style>
  </defs>
  <path id="user_1_" data-name="user (1)" class="cls-1" d="M129.566,64.783A64.783,64.783,0,1,0,21.027,112.505l-.061.054,2.1,1.772c.137.115.285.21.422.323,1.117.926,2.273,1.8,3.451,2.655.382.276.763.551,1.152.82q1.887,1.3,3.868,2.469c.287.17.577.335.867.5,1.444.822,2.919,1.6,4.429,2.309.111.052.224.1.335.151a64.2,64.2,0,0,0,15.668,4.959l.433.078c1.706.294,3.43.53,5.176.688.212.019.424.031.638.049,1.739.144,3.5.236,5.277.236,1.764,0,3.505-.092,5.234-.231.219-.019.438-.031.657-.049q2.6-.237,5.131-.676c.146-.026.294-.052.441-.08a64.2,64.2,0,0,0,15.447-4.841c.179-.082.36-.16.539-.245q2.18-1.025,4.266-2.2.519-.293,1.034-.6c1.267-.747,2.514-1.527,3.724-2.356.436-.3.862-.61,1.293-.921,1.034-.744,2.049-1.512,3.037-2.316.219-.177.455-.33.669-.511l2.156-1.8-.064-.054A64.615,64.615,0,0,0,129.566,64.783Zm-124.854,0a60.071,60.071,0,1,1,99.909,44.907,17.655,17.655,0,0,0-2.1-1.265L82.571,98.453a5.222,5.222,0,0,1-2.9-4.695V86.792c.462-.57.949-1.216,1.453-1.925A48.005,48.005,0,0,0,87.285,72.8,8.549,8.549,0,0,0,92.2,65.051V56.7a8.571,8.571,0,0,0-2.09-5.581V40.125a19,19,0,0,0-4.436-13.814c-4.342-4.956-11.369-7.465-20.888-7.465s-16.547,2.509-20.888,7.463a19,19,0,0,0-4.436,13.814V51.117a8.584,8.584,0,0,0-2.09,5.581v8.351a8.569,8.569,0,0,0,3.157,6.646,44.265,44.265,0,0,0,7.286,15.051v6.818a5.255,5.255,0,0,1-2.737,4.613l-18.627,10.16a17.024,17.024,0,0,0-1.772,1.121A59.927,59.927,0,0,1,4.711,64.783Z" transform="translate(0 0)"/>
</svg>
